/* XPM */
static char *result[] = {
/* columns rows colors chars-per-pixel */
"64 64 9 1 ",
"  c #181818",
". c #2E1B0E",
"X c #372111",
"o c #3F2A17",
"O c #402515",
"+ c #885038",
"@ c #D08860",
"# c #F8D098",
"$ c #F8F0E0",
/* pixels */
"oOOOXOoOOOOOXOOOXOOOOXOO.oOOOOXOoOOOXOoOOOOOXOOOXOOOOXOO.oOOOOXO",
".OOXOOO.OXOXOOXXO..OOOXOOOOOOO.o.OOXOOO.OXOXOOXXO..OOOXOOOOOOO.o",
"OXOXoOOOXOXoOOOOOXOoOXOXoXOOOXXOOXOX.OOOXOXoOOOOOXOoOXOXoXOOOXXO",
"OOX.OOXoOXOOOOOOOOOOXOX.XXO.oOOOOOX.OOXoOXOOOOOOOOOOXOX.XXO.oOOO",
"OOOOOOXOOOoOOXOOOXO.OOOOOoOOXOoOOOOOOOXOOOoOOXOOOXO.OOOOOoOOXOoO",
"OOOoXXOOOXOOOOOoXOOOOXoOXOOOOXOOOOOoXXOOOXOOOOOoXOOOOXoOXOOOOXOO",
"OO..XOOOXOXOOOXOOXOOOOX.OOOOXOX.OO..XOOOXOXOOOXOOXOOOOX.OOOOXOX.",
"oOOXOXoXOXOOoXOXOOO.OXOOOOOXOOOOoOOXOXoXOXOOoXOXOOO.OXOOOOOXOOOO",
"OOXOXOOO.OOXXO.OOOOOXXXOOoX.XOOOOOXOXOOO.OOXXO.OOOOOXXXOOoX.XOOO",
"OOOXOOOXOOOXXXOo.OOXoXOOOOOXOOO.OOOXOOOXOOOXXXOo.OOXoXOOOOOXOOO.",
".OXoXOOO.OOOXOOOOOXOXXOO.OXXOoXO.OXoXOOO.OOOXOOOOOXOXXOO.OXXOoXO",
"OXoXOOOOoOOXoX.OO.OXOOOOOXOXOO.OOXoXOOOOoOOXoX.OO.OXOOOOOXOXOO.O",
"XOOOOOOOOOXXXXOOOOOXOOXoOXOOOOOOXOOOOOOOOOXXXXOOOOOXOOXoOXOOOOOO",
"OOoOOO.OOX.XXOoXOOOOOOOOOOOOOOOXOOoOOO.OOX.XXOoXOOOOOOOOOOOOOOOX",
"OX.OOOoOXOoOOOOXOXOOO.OOO.OOOXXOOX.OOOoOXOoOOOOXOXOOO.OOO.OOOXXO",
"OOOOXXOXOOOOOOOOXOOoOOXOOXoXO++@@++OXXOXOOOOOOOOXOOoOOXOOXoXOOoO",
"oOOoOOOOOO.OOOO.OXO.OXoXOOXO@#####@+OOOOOO.OOOO.OXO.OXoXOOXOXOXO",
"OOXO.OOOOOoOOOXOOoOOXOOOOXX@#######@+OOOOOoOOOXOOoOOXOOOOXXOOOOO",
"O.Oo.OOO.XOOOXOoOXoXOOXOOOX@#######@+OOO.XOOOXOoOXoXOOXOOOXXXOOO",
"XOXOoXOoXOOOXOOOOOXXXOOO.OO+#######@+XOoXOOOXOOOOOXXXOOO.OOXOoOO",
".OXOOOOXXOOXOOXOXXOXOXOOO.@+#######@++OXXOOXOOXOXXOXOXOOO.XOO.OX",
"OOOoOOXOXOXOOOOOXOXoOOOOOX#+@#####@@+@XOXOXOOOOOXOXoOOOOOX.oXOOO",
".OXO.XOXXXOOoOOoO.OOOXOoOO#+@++@@++@+@OXXXOOoOOoO.OOOXOoOOOOXXOO",
"OOOOXOXXoOOXO.XXOOOOOOOOXO@ +$ @@ $+ +XXoOOXO.XXOOOOOOOOXOOXOOOX",
"OOOXXoOXXOOOOOOOXOOoOOOOXOX +$ ## $+ oOXXOOOOOOOXOOoOOOOXOXOXoXO",
"OXOOXOOOOXOOOXOOOOXOOXOX.XOX @###@@ XOOOOXOOOXOOOOXOOXOX.XOXXX.O",
"OoOXOOOXOOOXOOOOOOoXOOXOXXX++ @##@ ++OOXOOOXOOOOOOoXOOXOXXXoXOOO",
"OO.oXOOOoOO.OOXoOOOOOo.XOX+@@@++++@@@+OOoOO.OOXoOOOOOo.XOXOXOOOX",
"OOOOOXOXOOoXOXOOOOOOOOoOOO+@@@####@@@+OXOOoXOXOOOOOOOOoOOO.OOoOO",
"OOoOXOXOOXXOXOOXoOOOXXOXO+@#@+####+@#@+OOXXOXOOXoOOOXXOXOXOOXOXO",
"OXOOOoOOOOOXOOOOOOXoOXOO.+##@ #### @##+OOOOXOOOOOOXoOXOO.XOOOOOO",
"OOXOXOOOOO.OOoO.OXOOOOXOo+##+ @##@ +##+OOO.OOoO.OXOOOOXOoOOOOOXO",
"oOOOXOoOOOOOXOOOXOOOOXOO.+@@+ @##@ +@@+OOOOOXOOOXOOOOXOO.oOOOOXO",
".OOXOOO.OXOXOOXXO..OOOXOO ##+++@@+++## .OXOXOOXXO..OOOXOOOOOOO.o",
"OXOXoOOOXOXoOOOOOXOoOXOXo #@++++++++@# OXOXoOOOOOXOoOXOXoXOOOXXO",
"OOX.OOXoOXOOOOOOOOOOXOX.X @+ +@@+++ +@ oOXOOOOOOOOOOXOX.XXO.oOOO",
"OOOOOOXOOOoOOXOOOXO.OOOOOo   +@@+@+   XOOOoOOXOOOXO.OOOOOoOOXOoO",
"OOOoXXOOOXOOOOOoXOOOOXoOXOOO+@#@+@@ XXOOOXOOOOOoXOOOOXoOXOOOOXOO",
"OO..XOOOXOXOOOXOOXOOOOX.OOOO+##@+@@ XOOOXOXOOOXOOXOOOOX.OOOOXOX.",
"oOOXOXoXOXOOoXOXOOO.OXOOOOO+@##@+@@ OXoXOXOOoXOXOOO.OXOOOOOXOOOO",
"OOXOXOOO.OOXXO.OOOOOXXXOOoX+@@@@+@#@ OOO.OOXXO.OOOOOXXXOOoX.XOOO",
"OOOXOOOXOOOXXXOo.OOXoXOOOO+@##@@+###@ OXOOOXXXOo.OOXoXOOOOOXOOO.",
".OXoXOOO.OOOXOOOOOXOXXOO. @###+       OO.OOOXOOOOOXOXXOO.OXXOoXO",
"OXoXOOOOoOOXoX.OO.OXOOOOO       OXoXOOOOoOOXoX.OO.OXOOOOOXOXOO.O",
"XOOOOOOOOOXXXXOOOOOXOOXoOXOOOOOOXOOOOOOOOOXXXXOOOOOXOOXoOXOOOOOO",
"OOoOOO.OOX.XXOoXOOOOOOOOOOOOOOOXOOoOOO.OOX.XXOoXOOOOOOOOOOOOOOOX",
"OX.OOOoOXOoOOOOXOXOOO.OOO.OOOXXOOX.OOOoOXOoOOOOXOXOOO.OOO.OOOXXO",
"OOOOXXOXOOOOOOOOXOOoOOXOOXoXOOoOOOOOXXOXOOOOOOOOXOOoOOXOOXoXOOoO",
"oOOoOOOOOO.OOOO.OXO.OXoXOOXOXOXOoOOoOOOOOO.OOOO.OXO.OXoXOOXOXOXO",
"OOXO.OOOOOoOOOXOOoOOXOOOOXXOOOOOOOXO.OOOOOoOOOXOOoOOXOOOOXXOOOOO",
"O.Oo.OOO.XOOOXOoOXoXOOXOOOXXXOOOO.Oo.OOO.XOOOXOoOXoXOOXOOOXXXOOO",
"XOXOoXOoXOOOXOOOOOXXXOOO.OOXOoOOXOXOoXOoXOOOXOOOOOXXXOOO.OOXOoOO",
".OXOOOOXXOOXOOXOXXOXOXOOO.XOO.OX.OXOOOOXXOOXOOXOXXOXOXOOO.XOO.OX",
"OOOoOOXOXOXOOOOOXOXoOOOOOX.oXOOOOOOoOOXOXOXOOOOOXOXoOOOOOX.oXOOO",
".OXO.XOXXXOOoOOoO.OOOXOoOOOOXXOO.OXO.XOXXXOOoOOoO.OOOXOoOOOOXXOO",
"OOOOXOXXoOOXO.XXOOOOOOOOXOOXOOOXOOOOXOXXoOOXO.XXOOOOOOOOXOOXOOOX",
"OOOXXoOXXOOOOOOOXOOoOOOOXOXOXoXOOOOXXoOXXOOOOOOOXOOoOOOOXOXOXoXO",
"OXOOXOOOOXOOOXOOOOXOOXOX.XOXXX.OOXOOXOOOOXOOOXOOOOXOOXOX.XOXXX.O",
"OoOXOOOXOOOXOOOOOOoXOOXOXXXoXOOOOoOXOOOXOOOXOOOOOOoXOOXOXXXoXOOO",
"OO.oXOOOoOO.OOXoOOOOOo.XOXOXOOOXOO.oXOOOoOO.OOXoOOOOOo.XOXOXOOOX",
"OOOOOXOXOOoXOXOOOOOOOOoOOO.OOoOOOOOOOXOXOOoXOXOOOOOOOOoOOO.OOoOO",
"OOoOXOXOOXXOXOOXoOOOXXOXOXOOXOXOOOoOXOXOOXXOXOOXoOOOXXOXOXOOXOXO",
"OXOOOoOOOOOXOOOOOOXoOXOO.XOOOOOOOXOOOoOOOOOXOOOOOOXoOXOO.XOOOOOO",
"OOXOXOOOOO.OOoO.OXOOOOXOoOOOOOXOOOXOXOOOOO.OOoO.OXOOOOXOoOOOOOXO"
};
